<?xml version="1.0" standalone="no"?>
<!DOCTYPE svg PUBLIC "-//W3C//DTD SVG 20010904//EN"
 "http://www.w3.org/TR/2001/REC-SVG-20010904/DTD/svg10.dtd">
<svg version="1.0" xmlns="http://www.w3.org/2000/svg"
 width="512.000000pt" height="512.000000pt" viewBox="0 0 512.000000 512.000000"
 preserveAspectRatio="xMidYMid meet">

<g transform="translate(0.000000,512.000000) scale(0.100000,-0.100000)"
fill="#FFFFFF" stroke="none">
<path d="M2336 5105 c-344 -49 -680 -207 -912 -429 -73 -70 -81 -100 -39 -141
40 -40 65 -33 162 51 423 363 979 477 1492 305 469 -157 841 -543 985 -1024
53 -174 61 -244 60 -502 -1 -412 -55 -754 -181 -1148 l-47 -147 21 -28 c23
-31 77 -41 105 -20 51 37 172 497 217 818 60 431 52 769 -23 1042 -171 621
-697 1100 -1331 1213 -126 23 -386 28 -509 10z"/>
<path d="M2421 4549 c-617 -72 -1074 -649 -1002 -1268 92 -792 933 -1251 1648
-901 598 293 820 1034 483 1610 -122 207 -336 393 -555 481 -189 75 -376 101
-574 78z m388 -175 c547 -138 873 -722 704 -1258 -105 -334 -360 -579 -701
-674 -86 -24 -114 -27 -252 -26 -128 0 -169 4 -235 22 -185 50 -343 139 -469
265 -390 390 -392 1017 -4 1405 255 256 610 354 957 266z"/>
<path d="M2385 4224 c-295 -66 -531 -284 -625 -579 -32 -99 -39 -302 -15 -409
86 -389 418 -658 810 -659 126 0 197 13 307 55 256 98 448 324 514 605 23 98
15 312 -16 408 -88 277 -301 487 -572 566 -99 28 -304 35 -403 13z m396 -171
c201 -70 355 -224 426 -425 35 -98 43 -262 18 -372 -27 -125 -85 -227 -184
-327 -70 -70 -102 -94 -171 -128 -114 -55 -194 -74 -310 -74 -116 0 -197 19
-310 75 -111 54 -237 177 -293 285 -73 141 -97 330 -61 483 56 239 249 434
496 500 112 31 274 24 389 -17z"/>
<path d="M1192 4412 c-32 -32 -124 -192 -168 -292 -123 -279 -163 -570 -135
-965 51 -713 243 -1304 594 -1830 133 -199 226 -308 342 -399 80 -64 84 -68
74 -94 -6 -15 -13 -72 -16 -128 -11 -201 50 -359 196 -505 70 -70 102 -94 171
-127 201 -96 398 -95 598 3 198 98 336 294 360 513 8 71 1 197 -13 241 -4 15
9 29 60 65 126 91 239 218 382 431 76 114 172 280 225 390 37 77 39 88 28 114
-7 17 -25 35 -42 42 -52 21 -75 0 -148 -141 -280 -539 -525 -782 -888 -882
-65 -18 -104 -22 -252 -22 -188 0 -250 11 -391 68 -169 68 -346 213 -474 390
-436 598 -657 1303 -659 2096 -1 228 2 266 22 356 42 192 115 372 217 537 25
39 45 79 45 88 0 9 -9 28 -21 43 -25 32 -79 36 -107 8z m929 -3659 l67 -28 4
-80 c3 -67 10 -90 38 -143 39 -74 92 -125 169 -161 48 -22 69 -26 151 -26 85
0 101 3 150 28 128 66 209 196 210 338 0 35 1 36 71 64 38 15 72 25 75 22 13
-12 5 -180 -11 -234 -63 -216 -241 -363 -463 -379 -151 -12 -292 43 -402 155
-70 71 -110 141 -135 236 -21 82 -19 235 3 235 3 0 36 -12 73 -27z m487 -81
l154 5 -7 -35 c-21 -113 -101 -181 -211 -182 -103 0 -192 79 -202 178 l-4 49
58 -9 c33 -5 128 -8 212 -6z"/>
<path d="M2160 1559 c-33 -13 -78 -57 -97 -94 -20 -38 -20 -122 0 -160 48 -93
192 -205 318 -246 59 -19 95 -24 179 -24 84 0 120 5 179 24 126 41 270 153
318 246 20 38 20 122 0 160 -20 39 -65 81 -100 94 -37 14 -762 14 -797 0z
m759 -157 c22 -41 -93 -149 -207 -193 -76 -30 -213 -32 -290 -6 -115 41 -244
156 -221 198 9 18 29 19 359 19 326 0 350 -1 359 -18z"/>
</g>
</svg>
