<?xml version="1.0" encoding="iso-8859-1"?>
<!-- Generator: Adobe Illustrator 19.0.0, SVG Export Plug-In . SVG Version: 6.00 Build 0)  -->
<svg version="1.1" id="Layer_1" xmlns="http://www.w3.org/2000/svg" xmlns:xlink="http://www.w3.org/1999/xlink" x="0px" y="0px"
	 viewBox="0 0 470.3 470.3" style="enable-background:new 0 0 470.3 470.3;" xml:space="preserve">
<g >
	<g>
		<g fill="#16a5d4" >
			<path d="M446.89,44.624L404.464,2.196C403.057,0.79,401.149,0,399.16,0c-1.989,0-3.896,0.79-5.304,2.196L345.61,50.442
				l-19.533,6.512c-1.104,0.368-2.107,0.988-2.932,1.812l-49.498,49.497c-1.406,1.407-2.196,3.314-2.196,5.304
				s0.79,3.896,2.196,5.304l44.194,44.193l-226.6,226.602l-31.819-31.82l210.691-210.69c2.929-2.93,2.929-7.678,0-10.607
				c-2.93-2.928-7.678-2.928-10.607,0L43.512,352.541c-2.929,2.93-2.929,7.678,0,10.606l15.91,15.911l-27.244,27.243
				c-14.62,14.621-14.62,38.412,0,53.033c7.312,7.311,16.914,10.966,26.518,10.966c9.603,0,19.205-3.655,26.517-10.966
				l150.443-150.443c4.249-4.25,9.899-6.591,15.909-6.591c6.01,0,11.66,2.341,15.909,6.591c8.773,8.772,8.773,23.047,0,31.82
				c-4.249,4.249-9.899,6.59-15.909,6.59c-6.01,0-11.66-2.341-15.909-6.591c-2.93-2.928-7.678-2.928-10.607,0
				c-2.929,2.93-2.929,7.678,0,10.607c7.083,7.082,16.5,10.983,26.517,10.983c10.018,0,19.434-3.901,26.517-10.983
				c7.082-7.083,10.983-16.5,10.983-26.517c0-10.018-3.901-19.435-10.983-26.517c-7.083-7.083-16.499-10.984-26.517-10.984
				c-10.017,0-19.434,3.901-26.517,10.983L74.604,448.728c-8.772,8.774-23.049,8.772-31.819,0
				c-8.772-8.772-8.772-23.047-0.001-31.819l27.244-27.243l15.909,15.91c1.407,1.406,3.314,2.196,5.304,2.196
				s3.896-0.79,5.304-2.196l231.904-231.905l1.768,1.768c1.465,1.464,3.385,2.196,5.304,2.196c1.919,0,3.839-0.732,5.304-2.196
				l49.497-49.497c0.823-0.824,1.443-1.827,1.812-2.933l6.511-19.532l48.246-48.246C449.818,52.301,449.818,47.553,446.89,44.624z
				 M386.784,94.121c-0.823,0.824-1.443,1.827-1.812,2.933l-6.511,19.532l-42.941,42.942l-1.758-1.758
				c-0.02-0.02-44.205-44.204-44.205-44.204L332.5,70.625l19.533-6.512c1.104-0.368,2.108-0.988,2.932-1.812l44.194-44.195
				l31.819,31.82L386.784,94.121z"/>
			<path d="M349.663,88.817c-2.93-2.928-7.678-2.928-10.607,0c-2.929,2.93-2.929,7.678,0,10.607l10.606,10.606
				c1.465,1.464,3.385,2.196,5.304,2.196c1.919,0,3.839-0.732,5.304-2.196c2.929-2.93,2.929-7.678,0-10.607L349.663,88.817z"/>
			<path d="M370.876,67.604c-2.93-2.928-7.678-2.928-10.607,0c-2.929,2.93-2.929,7.678,0,10.607l10.606,10.606
				c1.465,1.464,3.385,2.196,5.304,2.196c1.919,0,3.839-0.732,5.304-2.196c2.929-2.93,2.929-7.678,0-10.607L370.876,67.604z"/>
		</g>
	</g>
</g>
<g>
</g>
<g>
</g>
<g>
</g>
<g>
</g>
<g>
</g>
<g>
</g>
<g>
</g>
<g>
</g>
<g>
</g>
<g>
</g>
<g>
</g>
<g>
</g>
<g>
</g>
<g>
</g>
<g>
</g>
</svg>
